<?xml version="1.0" encoding="UTF-8" standalone="no"?>
<!-- Created with Inkscape (http://www.inkscape.org/) -->

<svg
   xmlns:dc="http://purl.org/dc/elements/1.1/"
   xmlns:cc="http://creativecommons.org/ns#"
   xmlns:rdf="http://www.w3.org/1999/02/22-rdf-syntax-ns#"
   xmlns:svg="http://www.w3.org/2000/svg"
   xmlns="http://www.w3.org/2000/svg"
   xmlns:xlink="http://www.w3.org/1999/xlink"
   xmlns:sodipodi="http://sodipodi.sourceforge.net/DTD/sodipodi-0.dtd"
   xmlns:inkscape="http://www.inkscape.org/namespaces/inkscape"
   width="273mm"
   height="109mm"
   viewBox="0 0 273 109"
   version="1.1"
   id="svg8"
   inkscape:version="0.92.5 (2060ec1f9f, 2020-04-08)"
   sodipodi:docname="sensitivity.svg">
  <defs
     id="defs2">
    <clipPath
       clipPathUnits="userSpaceOnUse"
       id="clipPath837">
      <rect
         style="fill:none;stroke:#000000;stroke-width:0.56499916;stroke-miterlimit:4;stroke-dasharray:2.25999921, 0.56499919;stroke-dashoffset:0"
         id="rect839"
         width="264.20535"
         height="99.78569"
         x="-166.95265"
         y="40.671673" />
    </clipPath>
  </defs>
  <sodipodi:namedview
     id="base"
     pagecolor="#ffffff"
     bordercolor="#666666"
     borderopacity="1.0"
     inkscape:pageopacity="0.0"
     inkscape:pageshadow="2"
     inkscape:zoom="0.7"
     inkscape:cx="318.19356"
     inkscape:cy="354.33643"
     inkscape:document-units="mm"
     inkscape:current-layer="layer1"
     showgrid="false"
     inkscape:window-width="1920"
     inkscape:window-height="1176"
     inkscape:window-x="0"
     inkscape:window-y="0"
     inkscape:window-maximized="0" />
  <metadata
     id="metadata5">
    <rdf:RDF>
      <cc:Work
         rdf:about="">
        <dc:format>image/svg+xml</dc:format>
        <dc:type
           rdf:resource="http://purl.org/dc/dcmitype/StillImage" />
        <dc:title></dc:title>
      </cc:Work>
    </rdf:RDF>
  </metadata>
  <g
     inkscape:label="Layer 1"
     inkscape:groupmode="layer"
     id="layer1"
     transform="translate(0,-188)">
    <image
       y="-17.158413"
       x="-175.01613"
       id="image933"
[Omitted long matching line]
       preserveAspectRatio="none"
       style="image-rendering:optimizeSpeed"
       height="215.89999"
       width="279.04721"
       clip-path="url(#clipPath837)"
       transform="translate(175.83453,147.93987)" />
    <g
       id="g854"
       transform="matrix(0.6584116,0,0,0.6584116,58.811483,229.17788)">
      <g
         word-spacing="normal"
         letter-spacing="normal"
         font-size-adjust="none"
         font-stretch="normal"
         font-weight="normal"
         font-variant="normal"
         font-style="normal"
         stroke-miterlimit="10.433"
         xml:space="preserve"
         transform="matrix(0.3,0,0,-0.3,-52.5,222.75)"
         id="g852"
         style="font-style:normal;font-variant:normal;font-weight:normal;font-stretch:normal;letter-spacing:normal;word-spacing:normal;text-anchor:start;fill:none;fill-opacity:1;fill-rule:evenodd;stroke:#000000;stroke-linecap:butt;stroke-linejoin:miter;stroke-miterlimit:10.43299961;stroke-dasharray:none;stroke-dashoffset:0;stroke-opacity:1"><path
           id="path850"
           d="m 469.82,440.23 v 0 0.01 0 0.01 l -0.01,0.02 v 0.01 0.02 0.02 0.02 l -0.01,0.02 v 0.02 l -0.01,0.02 -0.01,0.02 -0.01,0.03 -0.01,0.02 -0.01,0.03 -0.01,0.02 -0.02,0.03 -0.02,0.02 -0.02,0.02 -0.02,0.03 -0.01,0.01 -0.01,0.01 -0.02,0.01 -0.01,0.01 -0.02,0.01 -0.01,0.01 -0.02,0.01 -0.01,0.01 -0.02,0.01 -0.02,0.01 h -0.02 l -0.02,0.01 -0.02,0.01 h -0.02 l -0.02,0.01 -0.02,0.01 h -0.03 -0.02 l -0.03,0.01 h -0.02 -0.03 l -0.03,0.01 h -0.02 -0.03 c -1.16,0 -4.79,-0.41 -6.08,-0.5 -0.41,-0.05 -0.96,-0.1 -0.96,-1 0,-0.6 0.46,-0.6 1.21,-0.6 2.39,0 2.48,-0.34 2.48,-0.84 l -0.15,-1 -7.22,-28.7 c -0.21,-0.69 -0.21,-0.8 -0.21,-1.1 0,-1.14 1,-1.39 1.46,-1.39 0.64,0 1.39,0.46 1.68,1.05 0.25,0.45 2.5,9.66 2.8,10.91 1.69,-0.15 5.78,-0.94 5.78,-4.24 0,-0.34 0,-0.55 -0.15,-1.05 -0.1,-0.59 -0.21,-1.18 -0.21,-1.73 0,-2.95 2,-4.94 4.6,-4.94 1.48,0 2.83,0.8 3.93,2.64 1.24,2.19 1.79,4.94 1.79,5.03 0,0.5 -0.44,0.5 -0.6,0.5 -0.5,0 -0.54,-0.2 -0.7,-0.9 -0.99,-3.63 -2.14,-6.17 -4.33,-6.17 -0.94,0 -1.59,0.54 -1.59,2.34 0,0.84 0.2,1.98 0.4,2.78 0.19,0.86 0.19,1.05 0.19,1.55 0,3.25 -3.14,4.69 -7.37,5.23 1.54,0.91 3.14,2.5 4.29,3.69 2.39,2.64 4.67,4.78 7.13,4.78 0.29,0 0.34,0 0.44,-0.05 0.6,-0.09 0.65,-0.09 1.04,-0.39 0.11,-0.06 0.11,-0.11 0.21,-0.2 -2.4,-0.16 -2.85,-2.09 -2.85,-2.69 0,-0.79 0.55,-1.75 1.89,-1.75 1.3,0 2.75,1.1 2.75,3.03 0,1.5 -1.15,3.14 -3.39,3.14 -1.39,0 -3.69,-0.39 -7.28,-4.37 -1.69,-1.89 -3.62,-3.89 -5.52,-4.64 z"
           inkscape:connector-curvature="0"
           style="fill:#000000;stroke-width:0" /></g>    </g>
    <g
       id="g888"
       transform="matrix(0,-0.70283836,0.70283836,0,-65.186555,317.30104)">
      <g
         word-spacing="normal"
         letter-spacing="normal"
         font-size-adjust="none"
         font-stretch="normal"
         font-weight="normal"
         font-variant="normal"
         font-style="normal"
         stroke-miterlimit="10.433"
         xml:space="preserve"
         transform="matrix(0.3,0,0,-0.3,-52.5,222.75)"
         id="g886"
         style="font-style:normal;font-variant:normal;font-weight:normal;font-stretch:normal;letter-spacing:normal;word-spacing:normal;text-anchor:start;fill:none;fill-opacity:1;fill-rule:evenodd;stroke:#000000;stroke-linecap:butt;stroke-linejoin:miter;stroke-miterlimit:10.43299961;stroke-dasharray:none;stroke-dashoffset:0;stroke-opacity:1"><path
           id="path870"
           d="m 472.11,409.98 0.03,-0.19 0.02,-0.18 0.04,-0.19 0.04,-0.18 0.05,-0.19 0.06,-0.18 0.06,-0.18 0.07,-0.18 0.07,-0.18 0.08,-0.17 0.09,-0.18 0.1,-0.16 0.1,-0.16 0.1,-0.16 0.12,-0.16 0.12,-0.14 0.12,-0.14 0.13,-0.14 0.14,-0.13 0.15,-0.12 0.15,-0.12 0.15,-0.1 0.17,-0.1 0.17,-0.09 0.17,-0.08 0.18,-0.07 0.19,-0.06 0.19,-0.05 0.2,-0.04 0.21,-0.03 0.21,-0.02 0.21,-0.01 c 1.04,0 4.08,0.71 4.08,4.74 v 2.78 h -1.25 v -2.78 c 0,-2.89 -1.23,-3.19 -1.79,-3.19 -1.65,0 -1.85,2.23 -1.85,2.48 v 9.97 c 0,2.1 0,4.03 -1.78,5.88 -1.95,1.93 -4.44,2.73 -6.83,2.73 -4.09,0 -7.53,-2.33 -7.53,-5.62 0,-1.49 1,-2.35 2.3,-2.35 1.39,0 2.29,1 2.29,2.3 0,0.59 -0.25,2.23 -2.54,2.3 1.34,1.73 3.78,2.28 5.37,2.28 2.46,0 5.28,-1.94 5.28,-6.38 v -1.84 -1.05 -4.98 c 0,-4.74 -3.57,-6.42 -5.82,-6.42 -2.44,0 -4.49,1.75 -4.49,4.23 0,2.73 2.1,6.88 10.31,7.17 v 0 1.05 c -2.53,-0.14 -6.01,-0.3 -9.15,-1.8 -3.74,-1.69 -4.99,-4.28 -4.99,-6.47 0,-4.03 4.83,-5.28 7.97,-5.28 3.3,0 5.58,1.99 6.53,4.33 z"
           inkscape:connector-curvature="0"
           style="fill:#000000;stroke-width:0" /><path
           id="path872"
           d="m 486.3,417.06 0.01,0.38 0.01,0.36 0.01,0.36 0.02,0.35 0.03,0.34 0.03,0.34 0.03,0.32 0.05,0.32 0.04,0.31 0.05,0.3 0.06,0.29 0.06,0.29 0.13,0.55 0.16,0.51 0.16,0.49 0.18,0.46 0.2,0.43 0.21,0.4 0.22,0.38 0.23,0.35 0.24,0.32 0.25,0.3 0.26,0.28 0.26,0.26 0.27,0.23 0.28,0.21 0.28,0.19 0.28,0.16 0.28,0.15 0.28,0.13 0.29,0.12 0.28,0.09 0.28,0.08 0.27,0.06 0.27,0.05 0.27,0.03 0.26,0.02 0.25,0.01 c 0.44,0 3.58,-0.05 5.33,-1.85 -2.05,-0.15 -2.35,-1.64 -2.35,-2.29 0,-1.3 0.89,-2.3 2.3,-2.3 1.28,0 2.28,0.86 2.28,2.34 0,3.39 -3.78,5.33 -7.62,5.33 -6.22,0 -10.82,-5.37 -10.82,-11.55 0,-6.37 4.94,-11.31 10.72,-11.31 6.67,0 8.27,5.99 8.27,6.47 0,0.5 -0.5,0.5 -0.64,0.5 -0.46,0 -0.55,-0.19 -0.66,-0.5 -1.44,-4.62 -4.67,-5.22 -6.51,-5.22 -2.64,0 -7.04,2.14 -7.04,10.16 z"
           inkscape:connector-curvature="0"
           style="fill:#000000;stroke-width:0" /><path
           id="path874"
           d="m 508.38,417.06 0.01,0.38 v 0.36 l 0.02,0.36 0.02,0.35 0.03,0.34 0.03,0.34 0.03,0.32 0.04,0.32 0.05,0.31 0.05,0.3 0.06,0.29 0.06,0.29 0.13,0.55 0.15,0.51 0.17,0.49 0.18,0.46 0.2,0.43 0.21,0.4 0.22,0.38 0.23,0.35 0.24,0.32 0.25,0.3 0.26,0.28 0.26,0.26 0.27,0.23 0.28,0.21 0.27,0.19 0.29,0.16 0.28,0.15 0.28,0.13 0.28,0.12 0.29,0.09 0.27,0.08 0.28,0.06 0.27,0.05 0.27,0.03 0.26,0.02 0.25,0.01 c 0.43,0 3.58,-0.05 5.33,-1.85 -2.05,-0.15 -2.35,-1.64 -2.35,-2.29 0,-1.3 0.89,-2.3 2.3,-2.3 1.28,0 2.28,0.86 2.28,2.34 0,3.39 -3.78,5.33 -7.63,5.33 -6.21,0 -10.81,-5.37 -10.81,-11.55 0,-6.37 4.94,-11.31 10.72,-11.31 6.67,0 8.27,5.99 8.27,6.47 0,0.5 -0.5,0.5 -0.64,0.5 -0.46,0 -0.55,-0.19 -0.66,-0.5 -1.44,-4.62 -4.67,-5.22 -6.52,-5.22 -2.64,0 -7.03,2.14 -7.03,10.16 z"
           inkscape:connector-curvature="0"
           style="fill:#000000;stroke-width:0" /><path
           id="path876"
           d="m 544.12,410.14 v -4.49 l 7.17,0.55 v 1.55 c -3.49,0 -3.89,0.34 -3.89,2.78 v 17.68 l -7.33,-0.54 v -1.55 c 3.5,0 3.89,-0.34 3.89,-2.78 v -8.88 c 0,-4.32 -2.39,-7.71 -6.03,-7.71 -4.17,0 -4.38,2.34 -4.38,4.93 v 16.53 l -7.32,-0.54 v -1.55 c 3.89,0 3.89,-0.14 3.89,-4.58 v -7.47 c 0,-3.89 0,-8.42 7.56,-8.42 2.8,0 4.98,1.39 6.44,4.49 z"
           inkscape:connector-curvature="0"
           style="fill:#000000;stroke-width:0" /><path
           id="path878"
           d="m 560.66,422.75 v 5.46 l -6.92,-0.54 v -1.55 c 3.49,0 3.89,-0.34 3.89,-2.78 v -13.36 c 0,-2.23 -0.54,-2.23 -3.89,-2.23 v -1.55 c 1.96,0.05 4.28,0.16 5.69,0.16 1.98,0 4.33,0 6.33,-0.16 v 1.55 h -1.05 c -3.69,0 -3.8,0.54 -3.8,2.34 v 7.67 c 0,4.92 2.1,9.36 5.89,9.36 0.35,0 0.44,0 0.55,-0.05 -0.15,-0.04 -1.15,-0.64 -1.15,-1.93 0,-1.41 1.04,-2.14 2.15,-2.14 0.89,0 2.14,0.59 2.14,2.18 0,1.6 -1.54,3.03 -3.69,3.03 -3.64,0 -5.43,-3.32 -6.14,-5.46 z"
           inkscape:connector-curvature="0"
           style="fill:#000000;stroke-width:0" /><path
           id="path880"
           d="m 588.5,409.98 0.03,-0.19 0.03,-0.18 0.03,-0.19 0.04,-0.18 0.05,-0.19 0.06,-0.18 0.06,-0.18 0.07,-0.18 0.07,-0.18 0.08,-0.17 0.09,-0.18 0.1,-0.16 0.1,-0.16 0.1,-0.16 0.12,-0.16 0.12,-0.14 0.12,-0.14 0.13,-0.14 0.14,-0.13 0.15,-0.12 0.15,-0.12 0.15,-0.1 0.17,-0.1 0.17,-0.09 0.17,-0.08 0.18,-0.07 0.19,-0.06 0.19,-0.05 0.2,-0.04 0.21,-0.03 0.21,-0.02 0.22,-0.01 c 1.03,0 4.07,0.71 4.07,4.74 v 2.78 h -1.25 v -2.78 c 0,-2.89 -1.23,-3.19 -1.79,-3.19 -1.65,0 -1.85,2.23 -1.85,2.48 v 9.97 c 0,2.1 0,4.03 -1.78,5.88 -1.95,1.93 -4.44,2.73 -6.83,2.73 -4.09,0 -7.53,-2.33 -7.53,-5.62 0,-1.49 1,-2.35 2.3,-2.35 1.39,0 2.29,1 2.29,2.3 0,0.59 -0.25,2.23 -2.54,2.3 1.34,1.73 3.78,2.28 5.37,2.28 2.46,0 5.29,-1.94 5.29,-6.38 v -1.84 -1.05 -4.98 c 0,-4.74 -3.58,-6.42 -5.83,-6.42 -2.44,0 -4.49,1.75 -4.49,4.23 0,2.73 2.1,6.88 10.32,7.17 v 0 1.05 c -2.54,-0.14 -6.02,-0.3 -9.16,-1.8 -3.74,-1.69 -4.99,-4.28 -4.99,-6.47 0,-4.03 4.83,-5.28 7.97,-5.28 3.3,0 5.58,1.99 6.53,4.33 z"
           inkscape:connector-curvature="0"
           style="fill:#000000;stroke-width:0" /><path
           id="path882"
           d="m 602.7,417.06 v 0.38 l 0.01,0.36 0.01,0.36 0.02,0.35 0.03,0.34 0.03,0.34 0.03,0.32 0.05,0.32 0.04,0.31 0.05,0.3 0.06,0.29 0.06,0.29 0.13,0.55 0.16,0.51 0.16,0.49 0.19,0.46 0.19,0.43 0.21,0.4 0.22,0.38 0.23,0.35 0.24,0.32 0.25,0.3 0.26,0.28 0.26,0.26 0.27,0.23 0.28,0.21 0.28,0.19 0.28,0.16 0.28,0.15 0.28,0.13 0.29,0.12 0.28,0.09 0.28,0.08 0.27,0.06 0.27,0.05 0.27,0.03 0.26,0.02 0.25,0.01 c 0.44,0 3.58,-0.05 5.33,-1.85 -2.05,-0.15 -2.35,-1.64 -2.35,-2.29 0,-1.3 0.89,-2.3 2.3,-2.3 1.28,0 2.28,0.86 2.28,2.34 0,3.39 -3.78,5.33 -7.62,5.33 -6.22,0 -10.82,-5.37 -10.82,-11.55 0,-6.37 4.94,-11.31 10.72,-11.31 6.68,0 8.27,5.99 8.27,6.47 0,0.5 -0.5,0.5 -0.64,0.5 -0.45,0 -0.55,-0.19 -0.66,-0.5 -1.44,-4.62 -4.67,-5.22 -6.51,-5.22 -2.64,0 -7.03,2.14 -7.03,10.16 z"
           inkscape:connector-curvature="0"
           style="fill:#000000;stroke-width:0" /><path
           id="path884"
           d="m 639.62,422.93 0.06,0.15 0.06,0.14 0.07,0.14 0.06,0.13 0.07,0.12 0.07,0.13 0.07,0.12 0.08,0.11 0.15,0.22 0.15,0.2 0.16,0.19 0.16,0.18 0.16,0.16 0.17,0.14 0.17,0.14 0.17,0.12 0.17,0.11 0.17,0.1 0.17,0.09 0.16,0.09 0.17,0.07 0.17,0.06 0.16,0.05 0.16,0.05 0.16,0.04 0.15,0.03 0.15,0.03 0.14,0.02 0.14,0.02 0.12,0.02 0.13,0.01 h 0.11 l 0.11,0.01 h 0.1 0.09 0.08 v 1.55 c -1.16,-0.1 -2.6,-0.14 -3.74,-0.14 -0.9,0 -3.25,0.09 -4.34,0.14 v -1.55 c 1.55,-0.05 2.34,-0.89 2.34,-2.14 0,-0.5 -0.04,-0.59 -0.29,-1.19 l -5.03,-12.26 -5.54,13.4 c -0.2,0.5 -0.29,0.71 -0.29,0.91 0,1.28 1.84,1.28 2.78,1.28 v 1.55 c -1.28,-0.05 -4.58,-0.14 -5.42,-0.14 -1.35,0 -3.35,0.04 -4.83,0.14 v -1.55 c 2.39,0 3.33,0 4.03,-1.73 l 7.47,-18.19 c -0.25,-0.64 -0.94,-2.3 -1.25,-2.94 -1.1,-2.73 -2.49,-6.19 -5.67,-6.19 -0.25,0 -1.39,0 -2.35,0.91 1.55,0.2 1.94,1.3 1.94,2.09 0,1.3 -0.94,2.1 -2.08,2.1 -1,0 -2.09,-0.66 -2.09,-2.14 0,-2.25 2.09,-4.05 4.58,-4.05 3.14,0 5.18,2.84 6.37,5.69 z"
           inkscape:connector-curvature="0"
           style="fill:#000000;stroke-width:0" /></g>    </g>
  </g>
</svg>
